<svg width="24" height="24" viewBox="0 0 24 24" fill="none" xmlns="http://www.w3.org/2000/svg">
<path d="M14.1302 11.3396C14.5202 9.69959 13.0902 8.26954 11.4502 8.65954C10.6802 8.84954 10.0502 9.47957 9.86022 10.2496C9.47023 11.8896 10.9002 13.3196 12.5402 12.9296C13.3202 12.7396 13.9502 12.1096 14.1302 11.3396Z" stroke="#132533" stroke-width="1.5" stroke-linecap="round" stroke-linejoin="round"/>
<path d="M18.0099 17.19C19.7199 15.59 20.7899 13.32 20.7899 10.79C20.7899 5.92998 16.85 2 12 2C7.14995 2 3.20996 5.93998 3.20996 10.79C3.20996 13.33 4.28996 15.62 6.01996 17.22" stroke="#132533" stroke-width="1.5" stroke-linecap="round" stroke-linejoin="round"/>
<path d="M7.99977 14.5498C7.07977 13.5698 6.50977 12.2498 6.50977 10.7898C6.50977 7.75979 8.96977 5.2998 11.9998 5.2998C15.0298 5.2998 17.4898 7.75979 17.4898 10.7898C17.4898 12.2498 16.9198 13.5598 15.9998 14.5498" stroke="#132533" stroke-width="1.5" stroke-linecap="round" stroke-linejoin="round"/>
<path d="M10.3002 16.6603L8.86022 18.4503C7.72022 19.8803 8.73022 21.9903 10.5602 21.9903H13.4302C15.2602 21.9903 16.2802 19.8703 15.1302 18.4503L13.6902 16.6603C12.8302 15.5703 11.1702 15.5703 10.3002 16.6603Z" stroke="#132533" stroke-width="1.5" stroke-linecap="round" stroke-linejoin="round"/>
</svg>
