<svg width="22" height="22" viewBox="0 0 22 22" fill="none" xmlns="http://www.w3.org/2000/svg">
<path d="M14.75 7.75C14.75 11.62 11.62 14.75 7.75 14.75C7.43 14.75 7.12 14.73 6.82 14.68C3.39 14.23 0.75 11.3 0.75 7.75C0.75 3.88 3.88 0.75 7.75 0.75C11.3 0.75 14.23 3.39 14.68 6.82C14.73 7.12 14.75 7.43 14.75 7.75Z" stroke="#132533" stroke-width="1.5" stroke-linecap="round" stroke-linejoin="round"/>
<path d="M20.7501 13.7503C20.7501 17.6203 17.6201 20.7503 13.7501 20.7503C10.2001 20.7503 7.27007 18.1103 6.82007 14.6803C7.12007 14.7303 7.43007 14.7503 7.75007 14.7503C11.6201 14.7503 14.7501 11.6203 14.7501 7.75031C14.7501 7.43031 14.7301 7.12031 14.6801 6.82031C18.1101 7.27031 20.7501 10.2003 20.7501 13.7503Z" stroke="#132533" stroke-width="1.5" stroke-linecap="round" stroke-linejoin="round"/>
<path d="M12.8999 12.8701L14.2099 14.1601" stroke="#132533" stroke-width="1.5" stroke-linecap="round" stroke-linejoin="round"/>
<path d="M15.75 10.75L14.75 9.75" stroke="#132533" stroke-width="1.5" stroke-linecap="round" stroke-linejoin="round"/>
<path d="M10.75 15.75L9.75 14.75" stroke="#132533" stroke-width="1.5" stroke-linecap="round" stroke-linejoin="round"/>
</svg>
