<svg width="24" height="24" viewBox="0 0 24 24" fill="none" xmlns="http://www.w3.org/2000/svg">
<path d="M4.64014 18.6405L16.9901 7.32047C17.5001 6.85047 17.4901 6.10046 16.9501 5.65046L13.1001 2.44047C12.1001 1.61047 11.2801 1.99047 11.2801 3.29047V20.7105C11.2801 22.0105 12.1001 22.3905 13.1001 21.5605L16.9501 18.3505C17.4901 17.9005 17.5001 17.1505 16.9901 16.6805L4.64014 5.36045" stroke="#132533" stroke-width="1.5" stroke-miterlimit="10" stroke-linecap="round" stroke-linejoin="round"/>
<path d="M5 13C5.55228 13 6 12.5523 6 12C6 11.4477 5.55228 11 5 11C4.44772 11 4 11.4477 4 12C4 12.5523 4.44772 13 5 13Z" stroke="#132533" stroke-width="1.5" stroke-miterlimit="10" stroke-linecap="round" stroke-linejoin="round"/>
<path d="M19 13C19.5523 13 20 12.5523 20 12C20 11.4477 19.5523 11 19 11C18.4477 11 18 11.4477 18 12C18 12.5523 18.4477 13 19 13Z" stroke="#132533" stroke-width="1.5" stroke-miterlimit="10" stroke-linecap="round" stroke-linejoin="round"/>
</svg>
