<svg width="24" height="24" viewBox="0 0 24 24" fill="none" xmlns="http://www.w3.org/2000/svg">
<path d="M12 18.2002C14.2091 18.2002 16 16.4093 16 14.2002C16 11.9911 14.2091 10.2002 12 10.2002C9.79086 10.2002 8 11.9911 8 14.2002C8 16.4093 9.79086 18.2002 12 18.2002Z" stroke="#132533" stroke-width="1.5" stroke-miterlimit="10" stroke-linecap="round" stroke-linejoin="round"/>
<path d="M10.4399 14.3003L11.0899 14.9503C11.2799 15.1403 11.5899 15.1403 11.7799 14.9603L13.5599 13.3203" stroke="#132533" stroke-width="1.5" stroke-linecap="round" stroke-linejoin="round"/>
<path d="M8.00007 22H16.0001C20.0201 22 20.7401 20.39 20.9501 18.43L21.7001 10.43C21.9701 7.99 21.2701 6 17.0001 6H7.00007C2.73007 6 2.03007 7.99 2.30007 10.43L3.05007 18.43C3.26007 20.39 3.98007 22 8.00007 22Z" stroke="#132533" stroke-width="1.5" stroke-miterlimit="10" stroke-linecap="round" stroke-linejoin="round"/>
<path d="M8 6V5.2C8 3.43 8 2 11.2 2H12.8C16 2 16 3.43 16 5.2V6" stroke="#132533" stroke-width="1.5" stroke-miterlimit="10" stroke-linecap="round" stroke-linejoin="round"/>
<path d="M21.65 11C19.92 12.26 18 13.14 16.01 13.64" stroke="#132533" stroke-width="1.5" stroke-miterlimit="10" stroke-linecap="round" stroke-linejoin="round"/>
<path d="M2.62012 11.2695C4.29012 12.4095 6.11012 13.2195 8.00012 13.6795" stroke="#132533" stroke-width="1.5" stroke-miterlimit="10" stroke-linecap="round" stroke-linejoin="round"/>
</svg>
