<svg width="24" height="24" viewBox="0 0 24 24" fill="none" xmlns="http://www.w3.org/2000/svg">
<path d="M8.94005 16.9299L6.11003 14.0998C5.17003 13.1598 5.17003 12.2098 6.11003 11.2698L10.83 6.5498L16.02 11.7398C16.28 11.9998 16.28 12.4199 16.02 12.6799L11.77 16.9299C10.83 17.8699 9.88005 17.8699 8.94005 16.9299Z" stroke="#132533" stroke-width="1.5" stroke-miterlimit="10" stroke-linecap="round" stroke-linejoin="round"/>
<path d="M9.88013 5.59961L10.8301 6.53961" stroke="#132533" stroke-width="1.5" stroke-miterlimit="10" stroke-linecap="round" stroke-linejoin="round"/>
<path d="M5.43994 12.6399L16.1299 12.1699" stroke="#132533" stroke-width="1.5" stroke-miterlimit="10" stroke-linecap="round" stroke-linejoin="round"/>
<path d="M17.3 14.8096C17.3 14.8096 15.99 16.2295 15.99 17.0995C15.99 17.8195 16.58 18.4095 17.3 18.4095C18.02 18.4095 18.61 17.8195 18.61 17.0995C18.6 16.2295 17.3 14.8096 17.3 14.8096Z" stroke="#132533" stroke-width="1.5" stroke-linecap="round" stroke-linejoin="round"/>
<path d="M22 15V9C22 4 20 2 15 2H9C4 2 2 4 2 9V15C2 20 4 22 9 22H15C20 22 22 20 22 15Z" stroke="#132533" stroke-width="1.5" stroke-linecap="round" stroke-linejoin="round"/>
</svg>
