<svg width="24" height="24" viewBox="0 0 24 24" fill="none" xmlns="http://www.w3.org/2000/svg">
<path d="M12.0002 18.1004C11.3002 18.1004 10.7002 17.5004 10.7002 16.8004V7.20039C10.7002 6.50039 11.3002 5.90039 12.0002 5.90039C12.7002 5.90039 13.3002 6.50039 13.3002 7.20039V16.9004C13.3002 17.6004 12.7002 18.1004 12.0002 18.1004Z" stroke="#132533" stroke-width="1.5" stroke-miterlimit="10"/>
<path d="M6.69996 8.89955C6.99996 8.29955 7.79996 8.09955 8.49996 8.39955L16.9 13.1995C17.5 13.5995 17.7 14.3995 17.4 14.9995C17 15.5995 16.2 15.7995 15.6 15.4995L7.19996 10.6995C6.49996 10.3995 6.29996 9.59955 6.69996 8.89955Z" stroke="#132533" stroke-width="1.5" stroke-miterlimit="10"/>
<path d="M6.7002 15.0995C6.3002 14.4995 6.6002 13.6995 7.2002 13.2995L15.6002 8.49951C16.2002 8.09951 17.0002 8.39951 17.4002 8.99951C17.8002 9.59951 17.5002 10.3995 16.9002 10.7995L8.5002 15.5995C7.8002 15.8995 7.0002 15.6995 6.7002 15.0995Z" stroke="#132533" stroke-width="1.5" stroke-miterlimit="10"/>
<path d="M12 22C17.5228 22 22 17.5228 22 12C22 6.47715 17.5228 2 12 2C6.47715 2 2 6.47715 2 12C2 17.5228 6.47715 22 12 22Z" stroke="#132533" stroke-width="1.5" stroke-miterlimit="10"/>
</svg>
