<svg width="24" height="24" viewBox="0 0 24 24" fill="none" xmlns="http://www.w3.org/2000/svg">
<path d="M8.50014 5.09961L11.2001 7.79961C11.6001 8.19961 12.4001 8.19961 12.8001 7.79961L15.5001 5.09961C16.2001 4.39961 15.7001 3.09961 14.7001 3.09961H9.30014C8.30014 3.19961 7.80014 4.39961 8.50014 5.09961Z" stroke="#132533" stroke-width="1.5" stroke-miterlimit="10" stroke-linecap="round" stroke-linejoin="round"/>
<path d="M8.50014 18.9004L11.2001 16.2004C11.6001 15.8004 12.4001 15.8004 12.8001 16.2004L15.5001 18.9004C16.2001 19.6004 15.7001 20.9004 14.7001 20.9004H9.30014C8.30014 20.8004 7.80014 19.6004 8.50014 18.9004Z" stroke="#132533" stroke-width="1.5" stroke-miterlimit="10" stroke-linecap="round" stroke-linejoin="round"/>
<path d="M2.2001 11.4996L4.4001 7.99963C4.7001 7.39963 5.5001 7.29963 6.0001 7.79963L9.5001 11.2996C9.9001 11.6996 9.9001 12.2996 9.5001 12.6996L6.0001 16.1996C5.5001 16.6996 4.8001 16.5996 4.4001 15.9996L2.2001 12.4996C1.9001 12.1996 1.9001 11.7996 2.2001 11.4996Z" stroke="#132533" stroke-width="1.5" stroke-miterlimit="10" stroke-linecap="round" stroke-linejoin="round"/>
<path d="M21.8002 11.4996L19.6002 7.99955C19.3002 7.49955 18.5002 7.39955 18.0002 7.79955L14.5002 11.2996C14.1002 11.6996 14.1002 12.2996 14.5002 12.6996L18.0002 16.1996C18.5002 16.6996 19.2002 16.5996 19.6002 15.9996L21.8002 12.4996C22.1002 12.1996 22.1002 11.7996 21.8002 11.4996Z" stroke="#132533" stroke-width="1.5" stroke-miterlimit="10" stroke-linecap="round" stroke-linejoin="round"/>
</svg>
