<svg width="24" height="24" viewBox="0 0 24 24" fill="none" xmlns="http://www.w3.org/2000/svg">
<path d="M17.94 17.94C16.2306 19.243 14.1491 19.9649 12 20C5 20 1 12 1 12C2.24389 9.68192 3.96914 7.65663 6.06 6.06L17.94 17.94Z" stroke="#132533" stroke-width="1.5" stroke-linecap="round" stroke-linejoin="round"/>
<path d="M1 1L23 23" stroke="#132533" stroke-width="1.5" stroke-linecap="round" stroke-linejoin="round"/>
<path d="M6.06 6.06C3.96914 7.65663 2.24389 9.68192 1 12C1 12 5 20 12 20C14.1491 19.9649 16.2306 19.243 17.94 17.94" stroke="#132533" stroke-width="1.5" stroke-linecap="round" stroke-linejoin="round"/>
<path d="M12 8C13.0609 8 14.0783 8.42143 14.8284 9.17157C15.5786 9.92172 16 10.9391 16 12" stroke="#132533" stroke-width="1.5" stroke-linecap="round" stroke-linejoin="round"/>
</svg>
