<svg width="24" height="24" viewBox="0 0 24 24" fill="none" xmlns="http://www.w3.org/2000/svg">
<path d="M17.3801 10.3804V13.6104C17.3801 16.3004 16.3001 17.3804 13.6101 17.3804H10.3801C7.69011 17.3804 6.61011 16.3004 6.61011 13.6104V10.3804C6.61011 7.69037 7.69011 6.61035 10.3801 6.61035H13.6101C16.3101 6.62035 17.3801 7.69037 17.3801 10.3804Z" stroke="#132533" stroke-width="1.5" stroke-linecap="round" stroke-linejoin="round"/>
<path d="M22 5.76999V9C22 11.69 20.92 12.77 18.23 12.77H17.38V10.39C17.38 7.70001 16.3 6.62 13.61 6.62H11.23V5.76999C11.23 3.07999 12.31 2 15 2H18.23C20.92 2 22 3.07999 22 5.76999Z" stroke="#132533" stroke-width="1.5" stroke-linecap="round" stroke-linejoin="round"/>
<path d="M2 18.2305V15.0005C2 12.3105 3.08 11.2305 5.77 11.2305H6.62V13.6104C6.62 16.3004 7.7 17.3805 10.39 17.3805H12.77V18.2305C12.77 20.9205 11.69 22.0005 9 22.0005H5.77C3.08 22.0005 2 20.9205 2 18.2305Z" stroke="#132533" stroke-width="1.5" stroke-linecap="round" stroke-linejoin="round"/>
</svg>
