<svg width="24" height="24" viewBox="0 0 24 24" fill="none" xmlns="http://www.w3.org/2000/svg">
<path d="M10 16.9503H6.21C2.84 16.9503 2 16.1103 2 12.7403V6.74027C2 3.37027 2.84 2.53027 6.21 2.53027H16.74C20.11 2.53027 20.95 3.37027 20.95 6.74027" stroke="#132533" stroke-width="1.5" stroke-linecap="round" stroke-linejoin="round"/>
<path d="M10 21.4702V16.9502" stroke="#132533" stroke-width="1.5" stroke-linecap="round" stroke-linejoin="round"/>
<path d="M2 12.9502H10" stroke="#132533" stroke-width="1.5" stroke-linecap="round" stroke-linejoin="round"/>
<path d="M6.74023 21.4697H10.0002" stroke="#132533" stroke-width="1.5" stroke-linecap="round" stroke-linejoin="round"/>
<path d="M21.9998 12.7998V18.5098C21.9998 20.8798 21.4098 21.4698 19.0398 21.4698H15.4898C13.1198 21.4698 12.5298 20.8798 12.5298 18.5098V12.7998C12.5298 10.4298 13.1198 9.83984 15.4898 9.83984H19.0398C21.4098 9.83984 21.9998 10.4298 21.9998 12.7998Z" stroke="#132533" stroke-width="1.5" stroke-linecap="round" stroke-linejoin="round"/>
<path d="M17.2445 18.25H17.2535" stroke="#132533" stroke-width="2" stroke-linecap="round" stroke-linejoin="round"/>
</svg>
