<svg width="24" height="24" viewBox="0 0 24 24" fill="none" xmlns="http://www.w3.org/2000/svg">
<path d="M10.7501 22.4996H13.2701C14.2301 22.4996 14.8501 21.8196 14.6701 20.9896L14.2601 19.1797H9.76008L9.35008 20.9896C9.17008 21.7696 9.85008 22.4996 10.7501 22.4996Z" stroke="#132533" stroke-width="1.5" stroke-linecap="round" stroke-linejoin="round"/>
<path d="M14.2601 19.1702L15.9901 17.6301C16.9601 16.7701 17.0001 16.1701 16.2301 15.2001L13.1801 11.3302C12.5401 10.5202 11.4901 10.5202 10.8501 11.3302L7.80006 15.2001C7.03006 16.1701 7.03005 16.8001 8.04005 17.6301L9.77005 19.1702" stroke="#132533" stroke-width="1.5" stroke-linecap="round" stroke-linejoin="round"/>
<path d="M12.01 11.1201V13.6501" stroke="#132533" stroke-width="1.5" stroke-linecap="round" stroke-linejoin="round"/>
<path d="M11.1501 5.18966L10.3701 4.40963C9.90008 3.93963 9.90008 3.17968 10.3701 2.70968L11.1501 1.92965C11.6201 1.45965 12.3801 1.45965 12.8501 1.92965L13.6301 2.70968C14.1001 3.17968 14.1001 3.93963 13.6301 4.40963L12.8501 5.18966C12.3801 5.65966 11.6201 5.65966 11.1501 5.18966Z" stroke="#132533" stroke-width="1.5" stroke-linecap="round" stroke-linejoin="round"/>
<path d="M19.45 9.80957H20.55C21.21 9.80957 21.75 10.3496 21.75 11.0096V12.1096C21.75 12.7696 21.21 13.3096 20.55 13.3096H19.45C18.79 13.3096 18.25 12.7696 18.25 12.1096V11.0096C18.25 10.3496 18.79 9.80957 19.45 9.80957Z" stroke="#132533" stroke-width="1.5" stroke-linecap="round" stroke-linejoin="round"/>
<path d="M4.55 9.80957H3.45C2.79 9.80957 2.25 10.3496 2.25 11.0096V12.1096C2.25 12.7696 2.79 13.3096 3.45 13.3096H4.55C5.21 13.3096 5.75 12.7696 5.75 12.1096V11.0096C5.75 10.3496 5.21 9.80957 4.55 9.80957Z" stroke="#132533" stroke-width="1.5" stroke-linecap="round" stroke-linejoin="round"/>
<path d="M18.54 10.0998L13.24 4.7998" stroke="#132533" stroke-width="1.5" stroke-linecap="round" stroke-linejoin="round"/>
<path d="M5.45996 10.0998L10.76 4.7998" stroke="#132533" stroke-width="1.5" stroke-linecap="round" stroke-linejoin="round"/>
</svg>
