<svg width="24" height="24" viewBox="0 0 24 24" fill="none" xmlns="http://www.w3.org/2000/svg">
<path d="M7.6001 7.59961V3.89961C7.6001 3.09961 8.2001 2.39961 9.0001 2.19961C11.0001 1.89961 13.0001 1.89961 15.0001 2.19961C15.8001 2.29961 16.4001 2.99961 16.4001 3.89961V9.79961C16.4001 10.9996 15.4001 11.9996 14.2001 11.9996H9.8001C8.6001 11.9996 7.6001 12.9996 7.6001 14.1996V20.0996C7.6001 20.8996 8.2001 21.5996 9.0001 21.7996C11.0001 22.0996 13.0001 22.0996 15.0001 21.7996C15.8001 21.6996 16.4001 20.9996 16.4001 20.0996V16.3996" stroke="#132533" stroke-width="1.5" stroke-linecap="round" stroke-linejoin="round"/>
<path d="M16.4 7.59961H20.1C20.9 7.59961 21.6 8.19961 21.8 8.99961C22.1 10.9996 22.1 12.9996 21.8 14.9996C21.7 15.7996 21 16.3996 20.1 16.3996H12" stroke="#132533" stroke-width="1.5" stroke-linecap="round" stroke-linejoin="round"/>
<path d="M12.0001 7.59961H3.9001C3.1001 7.59961 2.4001 8.19961 2.2001 8.99961C1.9001 10.9996 1.9001 12.9996 2.2001 14.9996C2.3001 15.7996 3.0001 16.3996 3.9001 16.3996H7.6001" stroke="#132533" stroke-width="1.5" stroke-linecap="round" stroke-linejoin="round"/>
<path d="M10 4.84961V4.84961" stroke="#132533" stroke-width="1.5" stroke-linecap="round" stroke-linejoin="round"/>
<path d="M14 19.1504V19.1504" stroke="#132533" stroke-width="1.5" stroke-linecap="round" stroke-linejoin="round"/>
</svg>
