<svg width="22" height="22" viewBox="0 0 22 22" fill="none" xmlns="http://www.w3.org/2000/svg">
<path d="M13.35 11.3304V14.0604C13.35 16.3404 12.44 17.2504 10.16 17.2504H7.44C5.17 17.2504 4.25 16.3404 4.25 14.0604V11.3304C4.25 9.06039 5.16 8.15039 7.44 8.15039H10.17C12.44 8.15039 13.35 9.06039 13.35 11.3304Z" stroke="#132533" stroke-width="1.5" stroke-linecap="round" stroke-linejoin="round"/>
<path d="M17.2499 7.43V10.16C17.2499 12.44 16.3399 13.35 14.0599 13.35H13.3499V11.33C13.3499 9.06 12.4399 8.15 10.1599 8.15H8.1499V7.43C8.1499 5.15 9.0599 4.25 11.3399 4.25H14.0699C16.3399 4.25 17.2499 5.16 17.2499 7.43Z" stroke="#132533" stroke-width="1.5" stroke-linecap="round" stroke-linejoin="round"/>
<path d="M20.75 13.75C20.75 17.62 17.62 20.75 13.75 20.75L14.8 19" stroke="#132533" stroke-width="1.5" stroke-linecap="round" stroke-linejoin="round"/>
<path d="M0.75 7.75C0.75 3.88 3.88 0.75 7.75 0.75L6.7 2.5" stroke="#132533" stroke-width="1.5" stroke-linecap="round" stroke-linejoin="round"/>
</svg>
