<svg width="24" height="24" viewBox="0 0 24 24" fill="none" xmlns="http://www.w3.org/2000/svg">
<path d="M23 4V10H17" stroke="#132533" stroke-width="1.5" stroke-linecap="round" stroke-linejoin="round"/>
<path d="M1 20V14H7" stroke="#132533" stroke-width="1.5" stroke-linecap="round" stroke-linejoin="round"/>
<path d="M3.51 9C4.15871 7.21997 5.30645 5.66991 6.80988 4.53897C8.31331 3.40803 10.1088 2.74228 12 2.74228C13.8912 2.74228 15.6867 3.40803 17.1901 4.53897C18.6935 5.66991 19.8413 7.21997 20.49 9L23 4" stroke="#132533" stroke-width="1.5" stroke-linecap="round" stroke-linejoin="round"/>
<path d="M20.49 15C19.8413 16.78 18.6935 18.3301 17.1901 19.461C15.6867 20.592 13.8912 21.2577 12 21.2577C10.1088 21.2577 8.31331 20.592 6.80988 19.461C5.30645 18.3301 4.15871 16.78 3.51 15L1 20" stroke="#132533" stroke-width="1.5" stroke-linecap="round" stroke-linejoin="round"/>
</svg>
