<svg width="24" height="24" viewBox="0 0 24 24" fill="none" xmlns="http://www.w3.org/2000/svg">
<path d="M1 4V10H7" stroke="#132533" stroke-width="1.5" stroke-linecap="round" stroke-linejoin="round"/>
<path d="M23 20V14H17" stroke="#132533" stroke-width="1.5" stroke-linecap="round" stroke-linejoin="round"/>
<path d="M20.49 9C19.8413 7.21997 18.6935 5.66991 17.1901 4.53897C15.6867 3.40803 13.8912 2.74228 12 2.74228C10.1088 2.74228 8.31331 3.40803 6.80988 4.53897C5.30645 5.66991 4.15871 7.21997 3.51 9L1 4" stroke="#132533" stroke-width="1.5" stroke-linecap="round" stroke-linejoin="round"/>
<path d="M3.51 15C4.15871 16.78 5.30645 18.3301 6.80988 19.461C8.31331 20.592 10.1088 21.2577 12 21.2577C13.8912 21.2577 15.6867 20.592 17.1901 19.461C18.6935 18.3301 19.8413 16.78 20.49 15L23 20" stroke="#132533" stroke-width="1.5" stroke-linecap="round" stroke-linejoin="round"/>
</svg>
