<svg width="24" height="24" viewBox="0 0 24 24" fill="none" xmlns="http://www.w3.org/2000/svg">
<path d="M13.4301 15.0004H4.40009C2.58009 15.0004 1.42009 13.0505 2.30009 11.4505L4.63009 7.21043L6.81009 3.24043C7.72009 1.59043 10.1001 1.59043 11.0101 3.24043L13.2001 7.21043L14.2501 9.12043L15.5301 11.4505C16.4101 13.0505 15.2501 15.0004 13.4301 15.0004Z" stroke="#132533" stroke-width="1.5" stroke-linecap="round" stroke-linejoin="round"/>
<path d="M22 15.5C22 19.09 19.09 22 15.5 22C11.91 22 9 19.09 9 15.5C9 15.33 9.01 15.17 9.02 15H13.43C15.25 15 16.41 13.05 15.53 11.45L14.25 9.12C14.65 9.04 15.07 9 15.5 9C19.09 9 22 11.91 22 15.5Z" stroke="#132533" stroke-width="1.5" stroke-linecap="round" stroke-linejoin="round"/>
</svg>
