<svg width="24" height="24" viewBox="0 0 24 24" fill="none" xmlns="http://www.w3.org/2000/svg">
<path d="M10.29 3.86L1.82 18C1.64543 18.3024 1.55291 18.6453 1.552 19C1.55109 19.3547 1.64181 19.6982 1.81482 20.0016C1.98783 20.305 2.23705 20.5568 2.53756 20.7292C2.83807 20.9016 3.17879 20.9882 3.525 20.98H20.475C20.8212 20.9882 21.1619 20.9016 21.4624 20.7292C21.7629 20.5568 22.0122 20.305 22.1852 20.0016C22.3582 19.6982 22.4489 19.3547 22.448 19C22.4471 18.6453 22.3546 18.3024 22.18 18L13.71 3.86C13.5318 3.56611 13.2807 3.32311 12.9812 3.15447C12.6817 2.98584 12.3438 2.89725 12 2.89725C11.6562 2.89725 11.3183 2.98584 11.0188 3.15447C10.7193 3.32311 10.4682 3.56611 10.29 3.86V3.86Z" stroke="#132533" stroke-width="1.5" stroke-linecap="round" stroke-linejoin="round"/>
<path d="M12 9V13" stroke="#132533" stroke-width="1.5" stroke-linecap="round" stroke-linejoin="round"/>
<path d="M12 17H12.01" stroke="#132533" stroke-width="1.5" stroke-linecap="round" stroke-linejoin="round"/>
</svg>
