<svg width="24" height="24" viewBox="0 0 24 24" fill="none" xmlns="http://www.w3.org/2000/svg">
<path d="M16 16L12 12L8 16" stroke="#132533" stroke-width="1.5" stroke-linecap="round" stroke-linejoin="round"/>
<path d="M12 12V21" stroke="#132533" stroke-width="1.5" stroke-linecap="round" stroke-linejoin="round"/>
<path d="M20.39 18.39C21.3654 17.8583 22.1358 16.9647 22.5559 15.8946C22.976 14.8244 23.0179 13.6387 22.6742 12.5428C22.3305 11.4468 21.6202 10.5102 20.64 9.89998C19.6598 9.28976 18.4743 9.04776 17.3069 9.21441C16.1396 9.38107 15.0694 9.94626 14.36 10.8C13.5798 9.73609 12.4601 9.00014 11.2001 8.73336C9.94012 8.46659 8.62019 8.68398 7.49997 9.33329C6.37974 9.98259 5.52846 11.0296 5.08689 12.2947C4.64532 13.5598 4.63947 14.9673 5.0703 16.2336C5.50113 17.4999 6.34404 18.5432 7.45718 19.1877C8.57032 19.8322 9.88053 20.0341 11.1355 19.7545C12.3905 19.4749 13.5122 18.7341 14.31 17.66" stroke="#132533" stroke-width="1.5" stroke-linecap="round" stroke-linejoin="round"/>
<path d="M16 16L20 16L20 20L16 20L16 16Z" stroke="#132533" stroke-width="1.5" stroke-linecap="round" stroke-linejoin="round"/>
</svg>
